<svg xmlns="http://www.w3.org/2000/svg" viewBox="0 0 500 500">
  <!-- Cubo de palomitas -->
  <rect x="60" y="320" width="380" height="180" rx="30" fill="#C0392B"/>
  <rect x="80" y="295" width="340" height="50" rx="8" fill="#E74C3C"/>
  <!-- Rayas verticales cubo -->
  <rect x="145" y="295" width="18" height="205" rx="4" fill="#922B21" opacity="0.5"/>
  <rect x="225" y="295" width="18" height="205" rx="4" fill="#922B21" opacity="0.5"/>
  <rect x="305" y="295" width="18" height="205" rx="4" fill="#922B21" opacity="0.5"/>
  <rect x="385" y="295" width="18" height="205" rx="4" fill="#922B21" opacity="0.5"/>

  <!-- Palomitas izquierda -->
  <ellipse cx="130" cy="300" rx="58" ry="52" fill="#F9F0DC"/>
  <circle cx="98"  cy="255" r="34" fill="#FFF8E7"/>
  <circle cx="140" cy="238" r="38" fill="#F9F0DC"/>
  <circle cx="88"  cy="228" r="28" fill="#FFF8E7"/>
  <circle cx="126" cy="212" r="32" fill="#FFF3CC"/>
  <circle cx="162" cy="246" r="28" fill="#FFF8E7"/>
  <circle cx="108" cy="208" r="24" fill="#FFF8E7"/>

  <!-- Palomitas centro -->
  <ellipse cx="250" cy="292" rx="68" ry="56" fill="#FFF8E7"/>
  <circle cx="212" cy="250" r="40" fill="#FFF3CC"/>
  <circle cx="258" cy="228" r="46" fill="#FFF8E7"/>
  <circle cx="296" cy="250" r="38" fill="#FFF3CC"/>
  <circle cx="236" cy="212" r="34" fill="#FFF8E7"/>
  <circle cx="276" cy="210" r="32" fill="#FFF3CC"/>
  <circle cx="214" cy="232" r="26" fill="#FFF8E7"/>

  <!-- Palomitas derecha -->
  <ellipse cx="370" cy="300" rx="58" ry="52" fill="#F9F0DC"/>
  <circle cx="348" cy="255" r="34" fill="#FFF8E7"/>
  <circle cx="388" cy="238" r="38" fill="#FFF3CC"/>
  <circle cx="342" cy="228" r="28" fill="#FFF8E7"/>
  <circle cx="384" cy="212" r="32" fill="#FFF8E7"/>
  <circle cx="346" cy="246" r="26" fill="#FFF3CC"/>
</svg>
